<svg xmlns="http://www.w3.org/2000/svg" xmlns:xlink="http://www.w3.org/1999/xlink" xmlns:lucid="lucid" width="1624.82" height="1073.9"><g transform="translate(0 0)" lucid:page-tab-id="mRVIwlnGPxSu"><path d="M378.98 8a8 8 0 0 1 8-8h836.75a8 8 0 0 1 8 8v25.16a8 8 0 0 1-8 8H386.98a8 8 0 0 1-8-8z" stroke="#000" stroke-opacity="0" stroke-width="2" fill="#fff" fill-opacity="0"/><use xlink:href="#a" transform="matrix(1,0,0,1,382.9815378942718,4) translate(290.54703703703706 25.782777777777778)"/><use xlink:href="#b" transform="matrix(1,0,0,1,382.9815378942718,4) translate(415.6124691358025 25.782777777777778)"/><use xlink:href="#c" transform="matrix(1,0,0,1,382.9815378942718,4) translate(459.24333333333334 25.782777777777778)"/><path d="M554.47 39.8h505.86M554.5 39.8h-1.03M1060.3 39.8h1.03" stroke="#a9afb8" stroke-width="2" fill="none"/><path d="M392.13 49.16a8 8 0 0 1 8-8h837.7a8 8 0 0 1 8 8V52a8 8 0 0 1-8 8h-837.7a8 8 0 0 1-8-8z" stroke="#000" stroke-opacity="0" stroke-width="2" fill="#fff" fill-opacity="0"/><use xlink:href="#d" transform="matrix(1,0,0,1,396.12809067961507,45.15522395689881) translate(278.2970884773663 14.917037037037037)"/><use xlink:href="#e" transform="matrix(1,0,0,1,396.12809067961507,45.15522395689881) translate(324.99328189300417 14.917037037037037)"/><use xlink:href="#f" transform="matrix(1,0,0,1,396.12809067961507,45.15522395689881) translate(380.9947222222222 14.917037037037037)"/><use xlink:href="#g" transform="matrix(1,0,0,1,396.12809067961507,45.15522395689881) translate(393.44420781893007 14.917037037037037)"/><use xlink:href="#h" transform="matrix(1,0,0,1,396.12809067961507,45.15522395689881) translate(427.4359773662552 14.917037037037037)"/><use xlink:href="#i" transform="matrix(1,0,0,1,396.12809067961507,45.15522395689881) translate(448.68083333333334 14.917037037037037)"/><use xlink:href="#j" transform="matrix(1,0,0,1,396.12809067961507,45.15522395689881) translate(523.3352572016461 14.917037037037037)"/><use xlink:href="#k" transform="matrix(1,0,0,1,396.12809067961507,45.15522395689881) translate(540.3311419753087 14.917037037037037)"/><path d="M521.64 392.1a5 5 0 0 1 5-5h294.73a5 5 0 0 1 5 5v222a5 5 0 0 1-5 5H526.64a5 5 0 0 1-5-5z" fill="#fff"/><path d="M521.64 427.1v-35a5 5 0 0 1 5-5h294.73a5 5 0 0 1 5 5v35" fill="#ced4db"/><path d="M521.64 392.1a5 5 0 0 1 5-5h294.73a5 5 0 0 1 5 5v222a5 5 0 0 1-5 5H526.64a5 5 0 0 1-5-5zM521.64 427.1h304.73M581.64 427.1v192" stroke="#000" fill="none"/><use xlink:href="#l" transform="matrix(1,0,0,1,531.6434501331939,387.1050098805829) translate(0 24.488888888888887)"/><use xlink:href="#m" transform="matrix(1,0,0,1,526.6434501331939,429.6050098805829) translate(13 17.1)"/><use xlink:href="#n" transform="matrix(1,0,0,1,586.6434501331939,429.6050098805829) translate(0 17.1)"/><use xlink:href="#o" transform="matrix(1,0,0,1,586.6434501331939,461.6050098805829) translate(0 17.1)"/><use xlink:href="#p" transform="matrix(1,0,0,1,586.6434501331939,493.6050098805829) translate(0 17.1)"/><use xlink:href="#q" transform="matrix(1,0,0,1,586.6434501331939,525.6050098805829) translate(0 17.1)"/><use xlink:href="#r" transform="matrix(1,0,0,1,586.6434501331939,557.6050098805829) translate(0 17.1)"/><use xlink:href="#s" transform="matrix(1,0,0,1,586.6434501331939,589.6050098805829) translate(0 17.1)"/><path d="M521.64 830.2a5 5 0 0 1 5-5h294.73a5 5 0 0 1 5 5v190a5 5 0 0 1-5 5H526.64a5 5 0 0 1-5-5z" fill="#fff"/><path d="M521.64 865.2v-35a5 5 0 0 1 5-5h294.73a5 5 0 0 1 5 5v35" fill="#ced4db"/><path d="M521.64 830.2a5 5 0 0 1 5-5h294.73a5 5 0 0 1 5 5v190a5 5 0 0 1-5 5H526.64a5 5 0 0 1-5-5zM521.64 865.2h304.73M581.64 865.2v160" stroke="#000" fill="none"/><use xlink:href="#t" transform="matrix(1,0,0,1,531.6434501331939,825.2114054903336) translate(0 24.488888888888887)"/><use xlink:href="#m" transform="matrix(1,0,0,1,526.6434501331939,867.7114054903336) translate(13 17.1)"/><use xlink:href="#n" transform="matrix(1,0,0,1,586.6434501331939,867.7114054903336) translate(0 17.1)"/><use xlink:href="#u" transform="matrix(1,0,0,1,586.6434501331939,899.7114054903336) translate(0 17.1)"/><use xlink:href="#v" transform="matrix(1,0,0,1,586.6434501331939,931.7114054903336) translate(0 17.1)"/><use xlink:href="#o" transform="matrix(1,0,0,1,586.6434501331939,963.7114054903336) translate(0 17.1)"/><use xlink:href="#w" transform="matrix(1,0,0,1,586.6434501331939,995.7114054903336) translate(0 17.1)"/><path d="M52.72 392.1a5 5 0 0 1 5-5h294.73a5 5 0 0 1 5 5v94a5 5 0 0 1-5 5H57.72a5 5 0 0 1-5-5z" fill="#fff"/><path d="M52.72 427.1v-35a5 5 0 0 1 5-5h294.73a5 5 0 0 1 5 5v35" fill="#ced4db"/><path d="M52.72 392.1a5 5 0 0 1 5-5h294.73a5 5 0 0 1 5 5v94a5 5 0 0 1-5 5H57.72a5 5 0 0 1-5-5zM52.72 427.1h304.73M112.72 427.1v64" stroke="#000" fill="none"/><use xlink:href="#x" transform="matrix(1,0,0,1,62.72375724547817,387.1050098805829) translate(0 24.488888888888887)"/><use xlink:href="#m" transform="matrix(1,0,0,1,57.72375724547817,429.6050098805829) translate(13 17.1)"/><use xlink:href="#y" transform="matrix(1,0,0,1,117.72375724547817,429.6050098805829) translate(0 17.1)"/><use xlink:href="#m" transform="matrix(1,0,0,1,57.72375724547817,461.6050098805829) translate(13 17.1)"/><use xlink:href="#z" transform="matrix(1,0,0,1,117.72375724547817,461.6050098805829) translate(0 17.1)"/><path d="M52.72 692.22a5 5 0 0 1 5-5h294.73a5 5 0 0 1 5 5v94a5 5 0 0 1-5 5H57.72a5 5 0 0 1-5-5z" fill="#fff"/><path d="M52.72 727.22v-35a5 5 0 0 1 5-5h294.73a5 5 0 0 1 5 5v35" fill="#ced4db"/><path d="M52.72 692.22a5 5 0 0 1 5-5h294.73a5 5 0 0 1 5 5v94a5 5 0 0 1-5 5H57.72a5 5 0 0 1-5-5zM52.72 727.22h304.73M112.72 727.22v64" stroke="#000" fill="none"/><use xlink:href="#A" transform="matrix(1,0,0,1,62.72375724547817,687.218805939154) translate(0 24.488888888888887)"/><use xlink:href="#m" transform="matrix(1,0,0,1,57.72375724547817,729.718805939154) translate(13 17.1)"/><use xlink:href="#B" transform="matrix(1,0,0,1,117.72375724547817,729.718805939154) translate(0 17.1)"/><use xlink:href="#m" transform="matrix(1,0,0,1,57.72375724547817,761.718805939154) translate(13 17.1)"/><use xlink:href="#C" transform="matrix(1,0,0,1,117.72375724547817,761.718805939154) translate(0 17.1)"/><path d="M52.72 265.1a5 5 0 0 1 5-5h294.73a5 5 0 0 1 5 5v94a5 5 0 0 1-5 5H57.72a5 5 0 0 1-5-5z" fill="#fff"/><path d="M52.72 300.1v-35a5 5 0 0 1 5-5h294.73a5 5 0 0 1 5 5v35" fill="#ced4db"/><path d="M52.72 265.1a5 5 0 0 1 5-5h294.73a5 5 0 0 1 5 5v94a5 5 0 0 1-5 5H57.72a5 5 0 0 1-5-5zM52.72 300.1h304.73M112.72 300.1v64" stroke="#000" fill="none"/><use xlink:href="#D" transform="matrix(1,0,0,1,62.72375724547817,260.10618378977415) translate(0 24.488888888888887)"/><use xlink:href="#m" transform="matrix(1,0,0,1,57.72375724547817,302.60618378977415) translate(13 17.1)"/><use xlink:href="#E" transform="matrix(1,0,0,1,117.72375724547817,302.60618378977415) translate(0 17.1)"/><use xlink:href="#F" transform="matrix(1,0,0,1,117.72375724547817,334.60618378977415) translate(0 17.1)"/><path d="M521.64 233a5 5 0 0 1 5-5h294.73a5 5 0 0 1 5 5v94a5 5 0 0 1-5 5H526.64a5 5 0 0 1-5-5z" fill="#fff"/><path d="M521.64 268v-35a5 5 0 0 1 5-5h294.73a5 5 0 0 1 5 5v35" fill="#ced4db"/><path d="M521.64 233a5 5 0 0 1 5-5h294.73a5 5 0 0 1 5 5v94a5 5 0 0 1-5 5H526.64a5 5 0 0 1-5-5zM521.64 268h304.73M581.64 268v64" stroke="#000" fill="none"/><use xlink:href="#G" transform="matrix(1,0,0,1,531.6434501331939,228.00119155562493) translate(0 24.488888888888887)"/><use xlink:href="#m" transform="matrix(1,0,0,1,526.6434501331939,270.5011915556249) translate(13 17.1)"/><use xlink:href="#y" transform="matrix(1,0,0,1,586.6434501331939,270.5011915556249) translate(0 17.1)"/><use xlink:href="#m" transform="matrix(1,0,0,1,526.6434501331939,302.5011915556249) translate(13 17.1)"/><use xlink:href="#E" transform="matrix(1,0,0,1,586.6434501331939,302.5011915556249) translate(0 17.1)"/><path d="M900.6 552.42a5 5 0 0 1 5-5h294.74a5 5 0 0 1 5 5v94a5 5 0 0 1-5 5H905.6a5 5 0 0 1-5-5z" fill="#fff"/><path d="M900.6 587.42v-35a5 5 0 0 1 5-5h294.74a5 5 0 0 1 5 5v35" fill="#ced4db"/><path d="M900.6 552.42a5 5 0 0 1 5-5h294.74a5 5 0 0 1 5 5v94a5 5 0 0 1-5 5H905.6a5 5 0 0 1-5-5zM900.6 587.42h304.74M960.6 587.42v64" stroke="#000" fill="none"/><use xlink:href="#H" transform="matrix(1,0,0,1,910.6109531760054,547.4200441287925) translate(0 24.488888888888887)"/><use xlink:href="#m" transform="matrix(1,0,0,1,905.6109531760054,589.9200441287925) translate(13 17.1)"/><use xlink:href="#I" transform="matrix(1,0,0,1,965.6109531760054,589.9200441287925) translate(0 17.1)"/><use xlink:href="#J" transform="matrix(1,0,0,1,965.6109531760054,621.9200441287925) translate(0 17.1)"/><path d="M827.37 603.43h72.24" stroke="#3a414a" fill="none"/><path d="M827.38 603.93h-.5v-1h.5zM900.1 603.93h-.5v-1h.5z" stroke="#3a414a" stroke-width=".05" fill="#3a414a"/><path d="M1277.02 392.1a5 5 0 0 1 5-5h294.72a5 5 0 0 1 5 5v94a5 5 0 0 1-5 5h-294.72a5 5 0 0 1-5-5z" fill="#fff"/><path d="M1277.02 427.1v-35a5 5 0 0 1 5-5h294.72a5 5 0 0 1 5 5v35" fill="#ced4db"/><path d="M1277.02 392.1a5 5 0 0 1 5-5h294.72a5 5 0 0 1 5 5v94a5 5 0 0 1-5 5h-294.72a5 5 0 0 1-5-5zM1277.02 427.1h304.72M1337.02 427.1v64" stroke="#000" fill="none"/><use xlink:href="#K" transform="matrix(1,0,0,1,1287.0150065899998,387.1050098805829) translate(0 24.488888888888887)"/><use xlink:href="#m" transform="matrix(1,0,0,1,1282.0150065899998,429.6050098805829) translate(13 17.1)"/><use xlink:href="#y" transform="matrix(1,0,0,1,1342.0150065899998,429.6050098805829) translate(0 17.1)"/><use xlink:href="#m" transform="matrix(1,0,0,1,1282.0150065899998,461.6050098805829) translate(13 17.1)"/><use xlink:href="#L" transform="matrix(1,0,0,1,1342.0150065899998,461.6050098805829) translate(0 17.1)"/><path d="M827.37 442.9h429.73" stroke="#3a414a" fill="none"/><path d="M827.38 443.4h-.5v-1h.5z" stroke="#3a414a" stroke-width=".05" fill="#3a414a"/><path d="M1276.3 452.9l-20-10 20-10" stroke="#3a414a" fill="#fff" fill-opacity="0"/><path d="M1276.3 442.9h-20" stroke="#3a414a" fill="#fff"/><path d="M358.45 316.12h143.28" stroke="#3a414a" fill="none"/><path d="M358.46 316.62h-.5v-1h.5z" stroke="#3a414a" stroke-width=".05" fill="#3a414a"/><path d="M520.92 326.12l-20-10 20-10" stroke="#3a414a" fill="#fff" fill-opacity="0"/><path d="M520.92 316.12h-20" stroke="#3a414a" fill="#fff"/><path d="M521.64 90a5 5 0 0 1 5-5h294.73a5 5 0 0 1 5 5v94a5 5 0 0 1-5 5H526.64a5 5 0 0 1-5-5z" fill="#fff"/><path d="M521.64 125V90a5 5 0 0 1 5-5h294.73a5 5 0 0 1 5 5v35" fill="#ced4db"/><path d="M521.64 90a5 5 0 0 1 5-5h294.73a5 5 0 0 1 5 5v94a5 5 0 0 1-5 5H526.64a5 5 0 0 1-5-5zM521.64 125h304.73M581.64 125v64" stroke="#000" fill="none"/><use xlink:href="#M" transform="matrix(1,0,0,1,531.6434501331939,84.99861427083218) translate(0 24.488888888888887)"/><use xlink:href="#m" transform="matrix(1,0,0,1,526.6434501331939,127.49861427083218) translate(13 17.1)"/><use xlink:href="#y" transform="matrix(1,0,0,1,586.6434501331939,127.49861427083218) translate(0 17.1)"/><use xlink:href="#m" transform="matrix(1,0,0,1,526.6434501331939,159.49861427083218) translate(13 17.1)"/><use xlink:href="#N" transform="matrix(1,0,0,1,586.6434501331939,159.49861427083218) translate(0 17.1)"/><path d="M52.72 90a5 5 0 0 1 5-5h294.73a5 5 0 0 1 5 5v94a5 5 0 0 1-5 5H57.72a5 5 0 0 1-5-5z" fill="#fff"/><path d="M52.72 125V90a5 5 0 0 1 5-5h294.73a5 5 0 0 1 5 5v35" fill="#ced4db"/><path d="M52.72 90a5 5 0 0 1 5-5h294.73a5 5 0 0 1 5 5v94a5 5 0 0 1-5 5H57.72a5 5 0 0 1-5-5zM52.72 125h304.73M112.72 125v64" stroke="#000" fill="none"/><use xlink:href="#O" transform="matrix(1,0,0,1,62.723757245478225,84.99861427083215) translate(0 24.488888888888887)"/><use xlink:href="#m" transform="matrix(1,0,0,1,57.723757245478225,127.49861427083215) translate(13 17.1)"/><use xlink:href="#N" transform="matrix(1,0,0,1,117.72375724547823,127.49861427083215) translate(0 17.1)"/><use xlink:href="#P" transform="matrix(1,0,0,1,117.72375724547823,159.49861427083215) translate(0 17.1)"/><path d="M520.64 141h-162.2" stroke="#3a414a" fill="none"/><path d="M521.14 141.5h-.5v-1h.5zM358.46 141.5h-.5v-1h.5z" stroke="#3a414a" stroke-width=".05" fill="#3a414a"/><path d="M52.72 830.26a5 5 0 0 1 5-5h294.73a5 5 0 0 1 5 5v222a5 5 0 0 1-5 5H57.72a5 5 0 0 1-5-5z" fill="#fff"/><path d="M52.72 865.26v-35a5 5 0 0 1 5-5h294.73a5 5 0 0 1 5 5v35" fill="#ced4db"/><path d="M52.72 830.26a5 5 0 0 1 5-5h294.73a5 5 0 0 1 5 5v222a5 5 0 0 1-5 5H57.72a5 5 0 0 1-5-5zM52.72 865.26h304.73M112.72 865.26v192" stroke="#000" fill="none"/><use xlink:href="#Q" transform="matrix(1,0,0,1,62.72375724547828,825.263888926153) translate(0 24.488888888888887)"/><use xlink:href="#m" transform="matrix(1,0,0,1,57.72375724547828,867.763888926153) translate(13 17.1)"/><use xlink:href="#z" transform="matrix(1,0,0,1,117.72375724547828,867.763888926153) translate(0 17.1)"/><use xlink:href="#R" transform="matrix(1,0,0,1,117.72375724547828,899.763888926153) translate(0 17.1)"/><use xlink:href="#S" transform="matrix(1,0,0,1,117.72375724547828,931.763888926153) translate(0 17.1)"/><use xlink:href="#T" transform="matrix(1,0,0,1,117.72375724547828,963.763888926153) translate(0 17.1)"/><use xlink:href="#U" transform="matrix(1,0,0,1,117.72375724547828,995.763888926153) translate(0 17.1)"/><use xlink:href="#V" transform="matrix(1,0,0,1,117.72375724547828,1027.763888926153) translate(0 17.1)"/><path d="M900.6 692.22a5 5 0 0 1 5-5h294.74a5 5 0 0 1 5 5v94a5 5 0 0 1-5 5H905.6a5 5 0 0 1-5-5z" fill="#fff"/><path d="M900.6 727.22v-35a5 5 0 0 1 5-5h294.74a5 5 0 0 1 5 5v35" fill="#ced4db"/><path d="M900.6 692.22a5 5 0 0 1 5-5h294.74a5 5 0 0 1 5 5v94a5 5 0 0 1-5 5H905.6a5 5 0 0 1-5-5zM900.6 727.22h304.74M960.6 727.22v64" stroke="#000" fill="none"/><use xlink:href="#W" transform="matrix(1,0,0,1,910.6109531760054,687.218805939154) translate(0 24.488888888888887)"/><use xlink:href="#m" transform="matrix(1,0,0,1,905.6109531760054,729.718805939154) translate(13 17.1)"/><use xlink:href="#z" transform="matrix(1,0,0,1,965.6109531760054,729.718805939154) translate(0 17.1)"/><use xlink:href="#m" transform="matrix(1,0,0,1,905.6109531760054,761.718805939154) translate(13 17.1)"/><use xlink:href="#L" transform="matrix(1,0,0,1,965.6109531760054,761.718805939154) translate(0 17.1)"/><path d="M1277.02 592.1a5 5 0 0 1 5-5h294.72a5 5 0 0 1 5 5v158a5 5 0 0 1-5 5h-294.72a5 5 0 0 1-5-5z" fill="#fff"/><path d="M1277.02 627.1v-35a5 5 0 0 1 5-5h294.72a5 5 0 0 1 5 5v35" fill="#ced4db"/><path d="M1277.02 592.1a5 5 0 0 1 5-5h294.72a5 5 0 0 1 5 5v158a5 5 0 0 1-5 5h-294.72a5 5 0 0 1-5-5zM1277.02 627.1h304.72M1337.02 627.1v128" stroke="#000" fill="none"/><use xlink:href="#X" transform="matrix(1,0,0,1,1287.0150065899998,587.1050098805829) translate(0 24.488888888888887)"/><use xlink:href="#m" transform="matrix(1,0,0,1,1282.0150065899998,629.6050098805829) translate(13 17.1)"/><use xlink:href="#L" transform="matrix(1,0,0,1,1342.0150065899998,629.6050098805829) translate(0 17.1)"/><use xlink:href="#Y" transform="matrix(1,0,0,1,1342.0150065899998,661.6050098805829) translate(0 17.1)"/><use xlink:href="#Z" transform="matrix(1,0,0,1,1342.0150065899998,693.6050098805829) translate(0 17.1)"/><use xlink:href="#aa" transform="matrix(1,0,0,1,1342.0150065899998,725.6050098805829) translate(0 17.1)"/><path d="M827.37 881.07h24.12a12 12 0 0 0 12-12V755.23a12 12 0 0 1 12-12h5.2" stroke="#3a414a" fill="none"/><path d="M827.38 881.57h-.5v-1h.5z" stroke="#3a414a" stroke-width=".05" fill="#3a414a"/><path d="M899.9 753.23l-20-10 20-10" stroke="#3a414a" fill="#fff" fill-opacity="0"/><path d="M899.9 743.23h-20" stroke="#3a414a" fill="#fff"/><path d="M900.6 830.1a5 5 0 0 1 5-5h294.74a5 5 0 0 1 5 5v126a5 5 0 0 1-5 5H905.6a5 5 0 0 1-5-5z" fill="#fff"/><path d="M900.6 865.1v-35a5 5 0 0 1 5-5h294.74a5 5 0 0 1 5 5v35" fill="#ced4db"/><path d="M900.6 830.1a5 5 0 0 1 5-5h294.74a5 5 0 0 1 5 5v126a5 5 0 0 1-5 5H905.6a5 5 0 0 1-5-5zM900.6 865.1h304.74M960.6 865.1v96" stroke="#000" fill="none"/><use xlink:href="#ab" transform="matrix(1,0,0,1,910.6109531760054,825.1064114416854) translate(0 24.488888888888887)"/><use xlink:href="#m" transform="matrix(1,0,0,1,905.6109531760054,867.6064114416854) translate(13 17.1)"/><use xlink:href="#z" transform="matrix(1,0,0,1,965.6109531760054,867.6064114416854) translate(0 17.1)"/><use xlink:href="#m" transform="matrix(1,0,0,1,905.6109531760054,899.6064114416854) translate(13 17.1)"/><use xlink:href="#L" transform="matrix(1,0,0,1,965.6109531760054,899.6064114416854) translate(0 17.1)"/><use xlink:href="#ac" transform="matrix(1,0,0,1,965.6109531760054,931.6064114416854) translate(0 17.1)"/><path d="M827.37 881.07h53.33" stroke="#3a414a" fill="none"/><path d="M827.38 881.57h-.5v-1h.5z" stroke="#3a414a" stroke-width=".05" fill="#3a414a"/><path d="M899.9 891.07l-20-10 20-10" stroke="#3a414a" fill="#fff" fill-opacity="0"/><path d="M899.9 881.07h-20" stroke="#3a414a" fill="#fff"/><path d="M827.37 442.9h27.5a12 12 0 0 0 12-12V153a12 12 0 0 0-12-12h-8.6" stroke="#3a414a" fill="none"/><path d="M827.38 443.4h-.5v-1h.5z" stroke="#3a414a" stroke-width=".05" fill="#3a414a"/><path d="M827.1 131l20 10-20 10" stroke="#3a414a" fill="#fff" fill-opacity="0"/><path d="M827.1 141h20" stroke="#3a414a" fill="#fff"/><path d="M520.64 442.9H377.36" stroke="#3a414a" fill="none"/><path d="M521.14 443.4h-.5v-1h.5z" stroke="#3a414a" stroke-width=".05" fill="#3a414a"/><path d="M358.18 432.9l20 10-20 10" stroke="#3a414a" fill="#fff" fill-opacity="0"/><path d="M358.18 442.9h20" stroke="#3a414a" fill="#fff"/><path d="M827.37 442.9h27.5a12 12 0 0 0 12-12V296a12 12 0 0 0-12-12h-8.6" stroke="#3a414a" fill="none"/><path d="M827.38 443.4h-.5v-1h.5z" stroke="#3a414a" stroke-width=".05" fill="#3a414a"/><path d="M827.1 274l20 10-20 10" stroke="#3a414a" fill="#fff" fill-opacity="0"/><path d="M827.1 284h20" stroke="#3a414a" fill="#fff"/><path d="M520.64 881.07h-69.1a12 12 0 0 1-12-12V755.23a12 12 0 0 0-12-12h-50.18" stroke="#3a414a" fill="none"/><path d="M521.14 881.57h-.5v-1h.5z" stroke="#3a414a" stroke-width=".05" fill="#3a414a"/><path d="M358.18 733.23l20 10-20 10" stroke="#3a414a" fill="#fff" fill-opacity="0"/><path d="M358.18 743.23h20" stroke="#3a414a" fill="#fff"/><path d="M520.64 881.07h-69.1a12 12 0 0 1-12-12v-81.73a12 12 0 0 0-12-12h-50.18" stroke="#3a414a" fill="none"/><path d="M521.14 881.57h-.5v-1h.5z" stroke="#3a414a" stroke-width=".05" fill="#3a414a"/><path d="M358.18 765.34l20 10-20 10" stroke="#3a414a" fill="#fff" fill-opacity="0"/><path d="M358.18 775.34h20" stroke="#3a414a" fill="#fff"/><path d="M520.64 881.07h-69.1a12 12 0 0 1-12-12V487.22a12 12 0 0 0-12-12h-50.18" stroke="#3a414a" fill="none"/><path d="M521.14 881.57h-.5v-1h.5z" stroke="#3a414a" stroke-width=".05" fill="#3a414a"/><path d="M358.18 465.22l20 10-20 10" stroke="#3a414a" fill="#fff" fill-opacity="0"/><path d="M358.18 475.22h20" stroke="#3a414a" fill="#fff"/><path d="M520.64 881.07H377.36" stroke="#3a414a" fill="none"/><path d="M521.14 881.57h-.5v-1h.5z" stroke="#3a414a" stroke-width=".05" fill="#3a414a"/><path d="M358.18 871.07l20 10-20 10" stroke="#3a414a" fill="#fff" fill-opacity="0"/><path d="M358.18 881.07h20" stroke="#3a414a" fill="#fff"/><path d="M1256.52 643h-8a12 12 0 0 1-12-12V487.23a12 12 0 0 1 12-12h8.58" stroke="#3a414a" fill="none"/><path d="M1256.52 633v20M1276.52 643h-20" stroke="#3a414a" fill="#fff"/><path d="M1276.3 485.22l-20-10 20-10" stroke="#3a414a" fill="#fff" fill-opacity="0"/><path d="M1276.3 475.22h-20" stroke="#3a414a" fill="#fff"/><path d="M1256.52 643h-3.34a12 12 0 0 0-12 12v246.17a12 12 0 0 1-12 12h-3.93" stroke="#3a414a" fill="none"/><path d="M1256.52 633v20M1276.52 643h-20" stroke="#3a414a" fill="#fff"/><path d="M1206.06 903.17l20 10-20 10" stroke="#3a414a" fill="#fff" fill-opacity="0"/><path d="M1206.06 913.17h20" stroke="#3a414a" fill="#fff"/><path d="M1256.52 643h-3.34a12 12 0 0 0-12 12v108.34a12 12 0 0 1-12 12h-3.93" stroke="#3a414a" fill="none"/><path d="M1256.52 633v20M1276.52 643h-20" stroke="#3a414a" fill="#fff"/><path d="M1206.06 765.34l20 10-20 10" stroke="#3a414a" fill="#fff" fill-opacity="0"/><path d="M1206.06 775.34h20" stroke="#3a414a" fill="#fff"/><defs><path fill="#a9afb8" d="M76-208v77h127v40H76V0H24v-248h183v40H76" id="ad"/><path fill="#a9afb8" d="M25-224v-37h50v37H25zM25 0v-190h50V0H25" id="ae"/><path fill="#a9afb8" d="M25 0v-261h50V0H25" id="af"/><path fill="#a9afb8" d="M220-157c-53 9-28 100-34 157h-49v-107c1-27-5-49-29-50C55-147 81-57 75 0H25l-1-190h47c2 12-1 28 3 38 10-53 101-56 108 0 13-22 24-43 59-42 82 1 51 116 57 194h-49v-107c-1-25-5-48-29-50" id="ag"/><path fill="#a9afb8" d="M110-194c64 0 96 36 96 99 0 64-35 99-97 99-61 0-95-36-95-99 0-62 34-99 96-99zm-1 164c35 0 45-28 45-65 0-40-10-65-43-65-34 0-45 26-45 65 0 36 10 65 43 65" id="ah"/><path fill="#a9afb8" d="M135-150c-39-12-60 13-60 57V0H25l-1-190h47c2 13-1 29 3 40 6-28 27-53 61-41v41" id="ai"/><path fill="#a9afb8" d="M133-34C117-15 103 5 69 4 32 3 11-16 11-54c-1-60 55-63 116-61 1-26-3-47-28-47-18 1-26 9-28 27l-52-2c7-38 36-58 82-57s74 22 75 68l1 82c-1 14 12 18 25 15v27c-30 8-71 5-69-32zm-48 3c29 0 43-24 42-57-32 0-66-3-65 30 0 17 8 27 23 27" id="aj"/><path fill="#a9afb8" d="M115-3C79 11 28 4 28-45v-112H4v-33h27l15-45h31v45h36v33H77v99c-1 23 16 31 38 25v30" id="ak"/><path fill="#a9afb8" d="M185-48c-13 30-37 53-82 52C43 2 14-33 14-96s30-98 90-98c62 0 83 45 84 108H66c0 31 8 55 39 56 18 0 30-7 34-22zm-45-69c5-46-57-63-70-21-2 6-4 13-4 21h74" id="al"/><g id="a"><use transform="matrix(0.0728395061728395,0,0,0.0728395061728395,0,0)" xlink:href="#ad"/><use transform="matrix(0.0728395061728395,0,0,0.0728395061728395,15.95185185185185,0)" xlink:href="#ae"/><use transform="matrix(0.0728395061728395,0,0,0.0728395061728395,23.235802469135802,0)" xlink:href="#af"/><use transform="matrix(0.0728395061728395,0,0,0.0728395061728395,30.51975308641975,0)" xlink:href="#ag"/><use transform="matrix(0.0728395061728395,0,0,0.0728395061728395,53.82839506172839,0)" xlink:href="#ah"/><use transform="matrix(0.0728395061728395,0,0,0.0728395061728395,69.78024691358024,0)" xlink:href="#ai"/><use transform="matrix(0.0728395061728395,0,0,0.0728395061728395,79.97777777777777,0)" xlink:href="#aj"/><use transform="matrix(0.0728395061728395,0,0,0.0728395061728395,94.54567901234567,0)" xlink:href="#ak"/><use transform="matrix(0.0728395061728395,0,0,0.0728395061728395,103.21358024691358,0)" xlink:href="#al"/></g><path fill="#a9afb8" d="M24 0v-248h195v40H76v63h132v40H76v65h150V0H24" id="am"/><path fill="#a9afb8" d="M240-174c0 40-23 61-54 70L253 0h-59l-57-94H76V0H24v-248c93 4 217-23 216 74zM76-134c48-2 112 12 112-38 0-48-66-32-112-35v73" id="an"/><g id="b"><use transform="matrix(0.0728395061728395,0,0,0.0728395061728395,0,0)" xlink:href="#am"/><use transform="matrix(0.0728395061728395,0,0,0.0728395061728395,17.48148148148148,0)" xlink:href="#an"/></g><path fill="#a9afb8" d="M88-194c31-1 46 15 58 34l-1-101h50l1 261h-48c-2-10 0-23-3-31C134-8 116 4 84 4 32 4 16-41 15-95c0-56 19-97 73-99zm17 164c33 0 40-30 41-66 1-37-9-64-41-64s-38 30-39 65c0 43 13 65 39 65" id="ao"/><path fill="#a9afb8" d="M195-6C206 82 75 100 31 46c-4-6-6-13-8-21l49-6c3 16 16 24 34 25 40 0 42-37 40-79-11 22-30 35-61 35-53 0-70-43-70-97 0-56 18-96 73-97 30 0 46 14 59 34l2-30h47zm-90-29c32 0 41-27 41-63 0-35-9-62-40-62-32 0-39 29-40 63 0 36 9 62 39 62" id="ap"/><g id="c"><use transform="matrix(0.0728395061728395,0,0,0.0728395061728395,0,0)" xlink:href="#ao"/><use transform="matrix(0.0728395061728395,0,0,0.0728395061728395,15.95185185185185,0)" xlink:href="#ae"/><use transform="matrix(0.0728395061728395,0,0,0.0728395061728395,23.235802469135802,0)" xlink:href="#aj"/><use transform="matrix(0.0728395061728395,0,0,0.0728395061728395,37.803703703703704,0)" xlink:href="#ap"/><use transform="matrix(0.0728395061728395,0,0,0.0728395061728395,53.75555555555555,0)" xlink:href="#ai"/><use transform="matrix(0.0728395061728395,0,0,0.0728395061728395,63.953086419753085,0)" xlink:href="#aj"/><use transform="matrix(0.0728395061728395,0,0,0.0728395061728395,78.52098765432099,0)" xlink:href="#ag"/></g><path fill="#a9afb8" d="M143 4C61 4 22-44 18-125c-5-107 100-154 193-111 17 8 29 25 37 43l-32 9c-13-25-37-40-76-40-61 0-88 39-88 99 0 61 29 100 91 101 35 0 62-11 79-27v-45h-74v-28h105v86C228-13 192 4 143 4" id="aq"/><path fill="#a9afb8" d="M114-163C36-179 61-72 57 0H25l-1-190h30c1 12-1 29 2 39 6-27 23-49 58-41v29" id="ar"/><path fill="#a9afb8" d="M100-194c62-1 85 37 85 99 1 63-27 99-86 99S16-35 15-95c0-66 28-99 85-99zM99-20c44 1 53-31 53-75 0-43-8-75-51-75s-53 32-53 75 10 74 51 75" id="as"/><path fill="#a9afb8" d="M84 4C-5 8 30-112 23-190h32v120c0 31 7 50 39 49 72-2 45-101 50-169h31l1 190h-30c-1-10 1-25-2-33-11 22-28 36-60 37" id="at"/><path fill="#a9afb8" d="M115-194c55 1 70 41 70 98S169 2 115 4C84 4 66-9 55-30l1 105H24l-1-265h31l2 30c10-21 28-34 59-34zm-8 174c40 0 45-34 45-75s-6-73-45-74c-42 0-51 32-51 76 0 43 10 73 51 73" id="au"/><g id="d"><use transform="matrix(0.04248971193415638,0,0,0.04248971193415638,0,0)" xlink:href="#aq"/><use transform="matrix(0.04248971193415638,0,0,0.04248971193415638,11.897119341563785,0)" xlink:href="#ar"/><use transform="matrix(0.04248971193415638,0,0,0.04248971193415638,16.953395061728394,0)" xlink:href="#as"/><use transform="matrix(0.04248971193415638,0,0,0.04248971193415638,25.45133744855967,0)" xlink:href="#at"/><use transform="matrix(0.04248971193415638,0,0,0.04248971193415638,33.949279835390946,0)" xlink:href="#au"/></g><path fill="#a9afb8" d="M30-248c87 1 191-15 191 75 0 78-77 80-158 76V0H30v-248zm33 125c57 0 124 11 124-50 0-59-68-47-124-48v98" id="av"/><path fill="#a9afb8" d="M24-231v-30h32v30H24zM-9 49c24 4 33-6 33-30v-209h32V24c2 40-23 58-65 49V49" id="aw"/><path fill="#a9afb8" d="M100-194c63 0 86 42 84 106H49c0 40 14 67 53 68 26 1 43-12 49-29l28 8c-11 28-37 45-77 45C44 4 14-33 15-96c1-61 26-98 85-98zm52 81c6-60-76-77-97-28-3 7-6 17-6 28h103" id="ax"/><path fill="#a9afb8" d="M96-169c-40 0-48 33-48 73s9 75 48 75c24 0 41-14 43-38l32 2c-6 37-31 61-74 61-59 0-76-41-82-99-10-93 101-131 147-64 4 7 5 14 7 22l-32 3c-4-21-16-35-41-35" id="ay"/><path fill="#a9afb8" d="M59-47c-2 24 18 29 38 22v24C64 9 27 4 27-40v-127H5v-23h24l9-43h21v43h35v23H59v120" id="az"/><g id="e"><use transform="matrix(0.04248971193415638,0,0,0.04248971193415638,0,0)" xlink:href="#av"/><use transform="matrix(0.04248971193415638,0,0,0.04248971193415638,10.19753086419753,0)" xlink:href="#ar"/><use transform="matrix(0.04248971193415638,0,0,0.04248971193415638,15.25380658436214,0)" xlink:href="#as"/><use transform="matrix(0.04248971193415638,0,0,0.04248971193415638,23.751748971193415,0)" xlink:href="#aw"/><use transform="matrix(0.04248971193415638,0,0,0.04248971193415638,27.10843621399177,0)" xlink:href="#ax"/><use transform="matrix(0.04248971193415638,0,0,0.04248971193415638,35.60637860082304,0)" xlink:href="#ay"/><use transform="matrix(0.04248971193415638,0,0,0.04248971193415638,43.25452674897119,0)" xlink:href="#az"/></g><path fill="#a9afb8" d="M32 76v-337h29V76H32" id="aA"/><use transform="matrix(0.04248971193415638,0,0,0.04248971193415638,0,0)" xlink:href="#aA" id="f"/><path fill="#a9afb8" d="M85-194c31 0 48 13 60 33l-1-100h32l1 261h-30c-2-10 0-23-3-31C134-8 116 4 85 4 32 4 16-35 15-94c0-66 23-100 70-100zm9 24c-40 0-46 34-46 75 0 40 6 74 45 74 42 0 51-32 51-76 0-42-9-74-50-73" id="aB"/><path fill="#a9afb8" d="M33 0v-38h34V0H33" id="aC"/><g id="g"><use transform="matrix(0.04248971193415638,0,0,0.04248971193415638,0,0)" xlink:href="#at"/><use transform="matrix(0.04248971193415638,0,0,0.04248971193415638,8.497942386831275,0)" xlink:href="#au"/><use transform="matrix(0.04248971193415638,0,0,0.04248971193415638,16.99588477366255,0)" xlink:href="#aB"/><use transform="matrix(0.04248971193415638,0,0,0.04248971193415638,25.493827160493822,0)" xlink:href="#aC"/></g><path fill="#a9afb8" d="M117-194c89-4 53 116 60 194h-32v-121c0-31-8-49-39-48C34-167 62-67 57 0H25l-1-190h30c1 10-1 24 2 32 11-22 29-35 61-36" id="aD"/><g id="h"><use transform="matrix(0.04248971193415638,0,0,0.04248971193415638,0,0)" xlink:href="#as"/><use transform="matrix(0.04248971193415638,0,0,0.04248971193415638,8.497942386831275,0)" xlink:href="#aD"/></g><path fill="#a9afb8" d="M190 0L58-211 59 0H30v-248h39L202-35l-2-213h31V0h-41" id="aE"/><path fill="#a9afb8" d="M108 0H70L1-190h34L89-25l56-165h34" id="aF"/><path fill="#a9afb8" d="M210-169c-67 3-38 105-44 169h-31v-121c0-29-5-50-35-48C34-165 62-65 56 0H25l-1-190h30c1 10-1 24 2 32 10-44 99-50 107 0 11-21 27-35 58-36 85-2 47 119 55 194h-31v-121c0-29-5-49-35-48" id="aG"/><path fill="#a9afb8" d="M115-194c53 0 69 39 70 98 0 66-23 100-70 100C84 3 66-7 56-30L54 0H23l1-261h32v101c10-23 28-34 59-34zm-8 174c40 0 45-34 45-75 0-40-5-75-45-74-42 0-51 32-51 76 0 43 10 73 51 73" id="aH"/><g id="i"><use transform="matrix(0.04248971193415638,0,0,0.04248971193415638,0,0)" xlink:href="#aE"/><use transform="matrix(0.04248971193415638,0,0,0.04248971193415638,11.004835390946502,0)" xlink:href="#as"/><use transform="matrix(0.04248971193415638,0,0,0.04248971193415638,19.502777777777776,0)" xlink:href="#aF"/><use transform="matrix(0.04248971193415638,0,0,0.04248971193415638,27.150925925925925,0)" xlink:href="#ax"/><use transform="matrix(0.04248971193415638,0,0,0.04248971193415638,35.6488683127572,0)" xlink:href="#aG"/><use transform="matrix(0.04248971193415638,0,0,0.04248971193415638,48.35329218106995,0)" xlink:href="#aH"/><use transform="matrix(0.04248971193415638,0,0,0.04248971193415638,56.851234567901244,0)" xlink:href="#ax"/><use transform="matrix(0.04248971193415638,0,0,0.04248971193415638,65.34917695473251,0)" xlink:href="#ar"/></g><path fill="#a9afb8" d="M27 0v-27h64v-190l-56 39v-29l58-41h29v221h61V0H27" id="aI"/><path fill="#a9afb8" d="M68-38c1 34 0 65-14 84H32c9-13 17-26 17-46H33v-38h35" id="aJ"/><g id="j"><use transform="matrix(0.04248971193415638,0,0,0.04248971193415638,0,0)" xlink:href="#aI"/><use transform="matrix(0.04248971193415638,0,0,0.04248971193415638,8.497942386831275,0)" xlink:href="#aJ"/></g><path fill="#a9afb8" d="M101-251c82-7 93 87 43 132L82-64C71-53 59-42 53-27h129V0H18c2-99 128-94 128-182 0-28-16-43-45-43s-46 15-49 41l-32-3c6-41 34-60 81-64" id="aK"/><path fill="#a9afb8" d="M101-251c68 0 85 55 85 127S166 4 100 4C33 4 14-52 14-124c0-73 17-127 87-127zm-1 229c47 0 54-49 54-102s-4-102-53-102c-51 0-55 48-55 102 0 53 5 102 54 102" id="aL"/><path fill="#a9afb8" d="M126-127c33 6 58 20 58 59 0 88-139 92-164 29-3-8-5-16-6-25l32-3c6 27 21 44 54 44 32 0 52-15 52-46 0-38-36-46-79-43v-28c39 1 72-4 72-42 0-27-17-43-46-43-28 0-47 15-49 41l-32-3c6-42 35-63 81-64 48-1 79 21 79 65 0 36-21 52-52 59" id="aM"/><g id="k"><use transform="matrix(0.04248971193415638,0,0,0.04248971193415638,0,0)" xlink:href="#aK"/><use transform="matrix(0.04248971193415638,0,0,0.04248971193415638,8.497942386831275,0)" xlink:href="#aL"/><use transform="matrix(0.04248971193415638,0,0,0.04248971193415638,16.99588477366255,0)" xlink:href="#aK"/><use transform="matrix(0.04248971193415638,0,0,0.04248971193415638,25.493827160493822,0)" xlink:href="#aM"/></g><path fill="#333" d="M121-226c-27-7-43 5-38 36h38v33H83V0H34v-157H6v-33h28c-9-59 32-81 87-68v32" id="aN"/><path fill="#333" d="M25-224v-37h50v37H25zM25 0v-190h50V0H25" id="aO"/><path fill="#333" d="M25 0v-261h50V0H25" id="aP"/><path fill="#333" d="M220-157c-53 9-28 100-34 157h-49v-107c1-27-5-49-29-50C55-147 81-57 75 0H25l-1-190h47c2 12-1 28 3 38 10-53 101-56 108 0 13-22 24-43 59-42 82 1 51 116 57 194h-49v-107c-1-25-5-48-29-50" id="aQ"/><path fill="#333" d="M137-138c1-29-70-34-71-4 15 46 118 7 119 86 1 83-164 76-172 9l43-7c4 19 20 25 44 25 33 8 57-30 24-41C81-84 22-81 20-136c-2-80 154-74 161-7" id="aR"/><g id="l"><use transform="matrix(0.06234567901234567,0,0,0.06234567901234567,0,0)" xlink:href="#aN"/><use transform="matrix(0.06234567901234567,0,0,0.06234567901234567,7.4191358024691345,0)" xlink:href="#aO"/><use transform="matrix(0.06234567901234567,0,0,0.06234567901234567,13.653703703703702,0)" xlink:href="#aP"/><use transform="matrix(0.06234567901234567,0,0,0.06234567901234567,19.888271604938268,0)" xlink:href="#aQ"/><use transform="matrix(0.06234567901234567,0,0,0.06234567901234567,39.83888888888888,0)" xlink:href="#aR"/></g><path d="M30-248c87 1 191-15 191 75 0 78-77 80-158 76V0H30v-248zm33 125c57 0 124 11 124-50 0-59-68-47-124-48v98" id="aS"/><path d="M194 0L95-120 63-95V0H30v-248h33v124l119-124h40L117-140 236 0h-42" id="aT"/><g id="m"><use transform="matrix(0.05,0,0,0.05,0,0)" xlink:href="#aS"/><use transform="matrix(0.05,0,0,0.05,12,0)" xlink:href="#aT"/></g><path fill="#333" d="M24-231v-30h32v30H24zM24 0v-190h32V0H24" id="aU"/><path fill="#333" d="M85-194c31 0 48 13 60 33l-1-100h32l1 261h-30c-2-10 0-23-3-31C134-8 116 4 85 4 32 4 16-35 15-94c0-66 23-100 70-100zm9 24c-40 0-46 34-46 75 0 40 6 74 45 74 42 0 51-32 51-76 0-42-9-74-50-73" id="aV"/><g id="n"><use transform="matrix(0.05,0,0,0.05,0,0)" xlink:href="#aU"/><use transform="matrix(0.05,0,0,0.05,3.95,0)" xlink:href="#aV"/></g><path fill="#333" d="M117-194c89-4 53 116 60 194h-32v-121c0-31-8-49-39-48C34-167 62-67 57 0H25l-1-190h30c1 10-1 24 2 32 11-22 29-35 61-36" id="aW"/><path fill="#333" d="M141-36C126-15 110 5 73 4 37 3 15-17 15-53c-1-64 63-63 125-63 3-35-9-54-41-54-24 1-41 7-42 31l-33-3c5-37 33-52 76-52 45 0 72 20 72 64v82c-1 20 7 32 28 27v20c-31 9-61-2-59-35zM48-53c0 20 12 33 32 33 41-3 63-29 60-74-43 2-92-5-92 41" id="aX"/><path fill="#333" d="M210-169c-67 3-38 105-44 169h-31v-121c0-29-5-50-35-48C34-165 62-65 56 0H25l-1-190h30c1 10-1 24 2 32 10-44 99-50 107 0 11-21 27-35 58-36 85-2 47 119 55 194h-31v-121c0-29-5-49-35-48" id="aY"/><path fill="#333" d="M100-194c63 0 86 42 84 106H49c0 40 14 67 53 68 26 1 43-12 49-29l28 8c-11 28-37 45-77 45C44 4 14-33 15-96c1-61 26-98 85-98zm52 81c6-60-76-77-97-28-3 7-6 17-6 28h103" id="aZ"/><g id="o"><use transform="matrix(0.05,0,0,0.05,0,0)" xlink:href="#aW"/><use transform="matrix(0.05,0,0,0.05,10,0)" xlink:href="#aX"/><use transform="matrix(0.05,0,0,0.05,20,0)" xlink:href="#aY"/><use transform="matrix(0.05,0,0,0.05,34.95,0)" xlink:href="#aZ"/></g><path fill="#333" d="M135-143c-3-34-86-38-87 0 15 53 115 12 119 90S17 21 10-45l28-5c4 36 97 45 98 0-10-56-113-15-118-90-4-57 82-63 122-42 12 7 21 19 24 35" id="ba"/><path fill="#333" d="M96-169c-40 0-48 33-48 73s9 75 48 75c24 0 41-14 43-38l32 2c-6 37-31 61-74 61-59 0-76-41-82-99-10-93 101-131 147-64 4 7 5 14 7 22l-32 3c-4-21-16-35-41-35" id="bb"/><path fill="#333" d="M114-163C36-179 61-72 57 0H25l-1-190h30c1 12-1 29 2 39 6-27 23-49 58-41v29" id="bc"/><path fill="#333" d="M115-194c55 1 70 41 70 98S169 2 115 4C84 4 66-9 55-30l1 105H24l-1-265h31l2 30c10-21 28-34 59-34zm-8 174c40 0 45-34 45-75s-6-73-45-74c-42 0-51 32-51 76 0 43 10 73 51 73" id="bd"/><path fill="#333" d="M59-47c-2 24 18 29 38 22v24C64 9 27 4 27-40v-127H5v-23h24l9-43h21v43h35v23H59v120" id="be"/><path fill="#333" d="M100-194c62-1 85 37 85 99 1 63-27 99-86 99S16-35 15-95c0-66 28-99 85-99zM99-20c44 1 53-31 53-75 0-43-8-75-51-75s-53 32-53 75 10 74 51 75" id="bf"/><g id="p"><use transform="matrix(0.05,0,0,0.05,0,0)" xlink:href="#aV"/><use transform="matrix(0.05,0,0,0.05,10,0)" xlink:href="#aZ"/><use transform="matrix(0.05,0,0,0.05,20,0)" xlink:href="#ba"/><use transform="matrix(0.05,0,0,0.05,29,0)" xlink:href="#bb"/><use transform="matrix(0.05,0,0,0.05,38,0)" xlink:href="#bc"/><use transform="matrix(0.05,0,0,0.05,43.95,0)" xlink:href="#aU"/><use transform="matrix(0.05,0,0,0.05,47.900000000000006,0)" xlink:href="#bd"/><use transform="matrix(0.05,0,0,0.05,57.900000000000006,0)" xlink:href="#be"/><use transform="matrix(0.05,0,0,0.05,62.900000000000006,0)" xlink:href="#aU"/><use transform="matrix(0.05,0,0,0.05,66.85000000000001,0)" xlink:href="#bf"/><use transform="matrix(0.05,0,0,0.05,76.85000000000001,0)" xlink:href="#aW"/></g><path fill="#333" d="M24 0v-261h32V0H24" id="bg"/><path fill="#333" d="M-5 72V49h209v23H-5" id="bh"/><g id="q"><use transform="matrix(0.05,0,0,0.05,0,0)" xlink:href="#bc"/><use transform="matrix(0.05,0,0,0.05,5.95,0)" xlink:href="#aZ"/><use transform="matrix(0.05,0,0,0.05,15.949999999999998,0)" xlink:href="#bg"/><use transform="matrix(0.05,0,0,0.05,19.9,0)" xlink:href="#aZ"/><use transform="matrix(0.05,0,0,0.05,29.899999999999995,0)" xlink:href="#aX"/><use transform="matrix(0.05,0,0,0.05,39.9,0)" xlink:href="#ba"/><use transform="matrix(0.05,0,0,0.05,48.9,0)" xlink:href="#aZ"/><use transform="matrix(0.05,0,0,0.05,58.900000000000006,0)" xlink:href="#bh"/><use transform="matrix(0.05,0,0,0.05,68.9,0)" xlink:href="#aV"/><use transform="matrix(0.05,0,0,0.05,78.9,0)" xlink:href="#aX"/><use transform="matrix(0.05,0,0,0.05,88.9,0)" xlink:href="#be"/><use transform="matrix(0.05,0,0,0.05,93.9,0)" xlink:href="#aZ"/></g><path fill="#333" d="M84 4C-5 8 30-112 23-190h32v120c0 31 7 50 39 49 72-2 45-101 50-169h31l1 190h-30c-1-10 1-25-2-33-11 22-28 36-60 37" id="bi"/><g id="r"><use transform="matrix(0.05,0,0,0.05,0,0)" xlink:href="#aV"/><use transform="matrix(0.05,0,0,0.05,10,0)" xlink:href="#bi"/><use transform="matrix(0.05,0,0,0.05,20,0)" xlink:href="#bc"/><use transform="matrix(0.05,0,0,0.05,25.950000000000003,0)" xlink:href="#aX"/><use transform="matrix(0.05,0,0,0.05,35.95,0)" xlink:href="#be"/><use transform="matrix(0.05,0,0,0.05,40.95,0)" xlink:href="#aU"/><use transform="matrix(0.05,0,0,0.05,44.900000000000006,0)" xlink:href="#bf"/><use transform="matrix(0.05,0,0,0.05,54.900000000000006,0)" xlink:href="#aW"/></g><path d="M114-163C36-179 61-72 57 0H25l-1-190h30c1 12-1 29 2 39 6-27 23-49 58-41v29" id="bj"/><path d="M141-36C126-15 110 5 73 4 37 3 15-17 15-53c-1-64 63-63 125-63 3-35-9-54-41-54-24 1-41 7-42 31l-33-3c5-37 33-52 76-52 45 0 72 20 72 64v82c-1 20 7 32 28 27v20c-31 9-61-2-59-35zM48-53c0 20 12 33 32 33 41-3 63-29 60-74-43 2-92-5-92 41" id="bk"/><path d="M59-47c-2 24 18 29 38 22v24C64 9 27 4 27-40v-127H5v-23h24l9-43h21v43h35v23H59v120" id="bl"/><path d="M24-231v-30h32v30H24zM24 0v-190h32V0H24" id="bm"/><path d="M117-194c89-4 53 116 60 194h-32v-121c0-31-8-49-39-48C34-167 62-67 57 0H25l-1-190h30c1 10-1 24 2 32 11-22 29-35 61-36" id="bn"/><path d="M177-190C167-65 218 103 67 71c-23-6-38-20-44-43l32-5c15 47 100 32 89-28v-30C133-14 115 1 83 1 29 1 15-40 15-95c0-56 16-97 71-98 29-1 48 16 59 35 1-10 0-23 2-32h30zM94-22c36 0 50-32 50-73 0-42-14-75-50-75-39 0-46 34-46 75s6 73 46 73" id="bo"/><path d="M-5 72V49h209v23H-5" id="bp"/><path d="M85-194c31 0 48 13 60 33l-1-100h32l1 261h-30c-2-10 0-23-3-31C134-8 116 4 85 4 32 4 16-35 15-94c0-66 23-100 70-100zm9 24c-40 0-46 34-46 75 0 40 6 74 45 74 42 0 51-32 51-76 0-42-9-74-50-73" id="bq"/><g id="s"><use transform="matrix(0.05,0,0,0.05,0,0)" xlink:href="#bj"/><use transform="matrix(0.05,0,0,0.05,5.95,0)" xlink:href="#bk"/><use transform="matrix(0.05,0,0,0.05,15.949999999999998,0)" xlink:href="#bl"/><use transform="matrix(0.05,0,0,0.05,20.95,0)" xlink:href="#bm"/><use transform="matrix(0.05,0,0,0.05,24.9,0)" xlink:href="#bn"/><use transform="matrix(0.05,0,0,0.05,34.9,0)" xlink:href="#bo"/><use transform="matrix(0.05,0,0,0.05,44.9,0)" xlink:href="#bp"/><use transform="matrix(0.05,0,0,0.05,54.900000000000006,0)" xlink:href="#bm"/><use transform="matrix(0.05,0,0,0.05,58.85,0)" xlink:href="#bq"/></g><path fill="#333" d="M85 4C-2 5 27-109 22-190h50c7 57-23 150 33 157 60-5 35-97 40-157h50l1 190h-47c-2-12 1-28-3-38-12 25-28 42-61 42" id="br"/><path fill="#333" d="M185-48c-13 30-37 53-82 52C43 2 14-33 14-96s30-98 90-98c62 0 83 45 84 108H66c0 31 8 55 39 56 18 0 30-7 34-22zm-45-69c5-46-57-63-70-21-2 6-4 13-4 21h74" id="bs"/><path fill="#333" d="M135-150c-39-12-60 13-60 57V0H25l-1-190h47c2 13-1 29 3 40 6-28 27-53 61-41v41" id="bt"/><g id="t"><use transform="matrix(0.06234567901234567,0,0,0.06234567901234567,0,0)" xlink:href="#br"/><use transform="matrix(0.06234567901234567,0,0,0.06234567901234567,13.653703703703702,0)" xlink:href="#aR"/><use transform="matrix(0.06234567901234567,0,0,0.06234567901234567,26.122839506172834,0)" xlink:href="#bs"/><use transform="matrix(0.06234567901234567,0,0,0.06234567901234567,38.59197530864196,0)" xlink:href="#bt"/><use transform="matrix(0.06234567901234567,0,0,0.06234567901234567,47.320370370370355,0)" xlink:href="#aR"/></g><g id="u"><use transform="matrix(0.05,0,0,0.05,0,0)" xlink:href="#aZ"/><use transform="matrix(0.05,0,0,0.05,10,0)" xlink:href="#aY"/><use transform="matrix(0.05,0,0,0.05,24.950000000000003,0)" xlink:href="#aX"/><use transform="matrix(0.05,0,0,0.05,34.95,0)" xlink:href="#aU"/><use transform="matrix(0.05,0,0,0.05,38.900000000000006,0)" xlink:href="#bg"/></g><path fill="#333" d="M177-190C167-65 218 103 67 71c-23-6-38-20-44-43l32-5c15 47 100 32 89-28v-30C133-14 115 1 83 1 29 1 15-40 15-95c0-56 16-97 71-98 29-1 48 16 59 35 1-10 0-23 2-32h30zM94-22c36 0 50-32 50-73 0-42-14-75-50-75-39 0-46 34-46 75s6 73 46 73" id="bu"/><g id="v"><use transform="matrix(0.05,0,0,0.05,0,0)" xlink:href="#bg"/><use transform="matrix(0.05,0,0,0.05,3.95,0)" xlink:href="#bf"/><use transform="matrix(0.05,0,0,0.05,13.949999999999998,0)" xlink:href="#bu"/><use transform="matrix(0.05,0,0,0.05,23.95,0)" xlink:href="#aU"/><use transform="matrix(0.05,0,0,0.05,27.899999999999995,0)" xlink:href="#aW"/></g><path fill="#333" d="M115-194c53 0 69 39 70 98 0 66-23 100-70 100C84 3 66-7 56-30L54 0H23l1-261h32v101c10-23 28-34 59-34zm-8 174c40 0 45-34 45-75 0-40-5-75-45-74-42 0-51 32-51 76 0 43 10 73 51 73" id="bv"/><path fill="#333" d="M106-169C34-169 62-67 57 0H25v-261h32l-1 103c12-21 28-36 61-36 89 0 53 116 60 194h-32v-121c2-32-8-49-39-48" id="bw"/><path fill="#333" d="M179-190L93 31C79 59 56 82 12 73V49c39 6 53-20 64-50L1-190h34L92-34l54-156h33" id="bx"/><g id="w"><use transform="matrix(0.05,0,0,0.05,0,0)" xlink:href="#bv"/><use transform="matrix(0.05,0,0,0.05,10,0)" xlink:href="#aU"/><use transform="matrix(0.05,0,0,0.05,13.949999999999998,0)" xlink:href="#be"/><use transform="matrix(0.05,0,0,0.05,18.95,0)" xlink:href="#bw"/><use transform="matrix(0.05,0,0,0.05,28.950000000000003,0)" xlink:href="#aV"/><use transform="matrix(0.05,0,0,0.05,38.95,0)" xlink:href="#aX"/><use transform="matrix(0.05,0,0,0.05,48.95,0)" xlink:href="#bx"/></g><path fill="#333" d="M147 0L96-86 75-71V0H25v-261h50v150l67-79h53l-66 74L201 0h-54" id="by"/><g id="x"><use transform="matrix(0.06234567901234567,0,0,0.06234567901234567,0,0)" xlink:href="#aP"/><use transform="matrix(0.06234567901234567,0,0,0.06234567901234567,6.234567901234566,0)" xlink:href="#aO"/><use transform="matrix(0.06234567901234567,0,0,0.06234567901234567,12.469135802469133,0)" xlink:href="#by"/><use transform="matrix(0.06234567901234567,0,0,0.06234567901234567,24.938271604938265,0)" xlink:href="#bs"/><use transform="matrix(0.06234567901234567,0,0,0.06234567901234567,37.4074074074074,0)" xlink:href="#aR"/></g><path fill="#333" d="M101-234c-31-9-42 10-38 44h38v23H63V0H32v-167H5v-23h27c-7-52 17-82 69-68v24" id="bz"/><g id="y"><use transform="matrix(0.05,0,0,0.05,0,0)" xlink:href="#bz"/><use transform="matrix(0.05,0,0,0.05,5,0)" xlink:href="#aU"/><use transform="matrix(0.05,0,0,0.05,8.95,0)" xlink:href="#bg"/><use transform="matrix(0.05,0,0,0.05,12.899999999999999,0)" xlink:href="#aY"/><use transform="matrix(0.05,0,0,0.05,27.85,0)" xlink:href="#bh"/><use transform="matrix(0.05,0,0,0.05,37.85,0)" xlink:href="#aU"/><use transform="matrix(0.05,0,0,0.05,41.800000000000004,0)" xlink:href="#aV"/></g><g id="z"><use transform="matrix(0.05,0,0,0.05,0,0)" xlink:href="#bi"/><use transform="matrix(0.05,0,0,0.05,10,0)" xlink:href="#ba"/><use transform="matrix(0.05,0,0,0.05,19,0)" xlink:href="#aZ"/><use transform="matrix(0.05,0,0,0.05,29,0)" xlink:href="#bc"/><use transform="matrix(0.05,0,0,0.05,34.95,0)" xlink:href="#bh"/><use transform="matrix(0.05,0,0,0.05,44.95,0)" xlink:href="#aU"/><use transform="matrix(0.05,0,0,0.05,48.900000000000006,0)" xlink:href="#aV"/></g><path fill="#333" d="M135-194c87-1 58 113 63 194h-50c-7-57 23-157-34-157-59 0-34 97-39 157H25l-1-190h47c2 12-1 28 3 38 12-26 28-41 61-42" id="bA"/><path fill="#333" d="M88-194c31-1 46 15 58 34l-1-101h50l1 261h-48c-2-10 0-23-3-31C134-8 116 4 84 4 32 4 16-41 15-95c0-56 19-97 73-99zm17 164c33 0 40-30 41-66 1-37-9-64-41-64s-38 30-39 65c0 43 13 65 39 65" id="bB"/><g id="A"><use transform="matrix(0.06234567901234567,0,0,0.06234567901234567,0,0)" xlink:href="#aN"/><use transform="matrix(0.06234567901234567,0,0,0.06234567901234567,7.4191358024691345,0)" xlink:href="#bt"/><use transform="matrix(0.06234567901234567,0,0,0.06234567901234567,16.147530864197527,0)" xlink:href="#aO"/><use transform="matrix(0.06234567901234567,0,0,0.06234567901234567,22.382098765432094,0)" xlink:href="#bs"/><use transform="matrix(0.06234567901234567,0,0,0.06234567901234567,34.85123456790123,0)" xlink:href="#bA"/><use transform="matrix(0.06234567901234567,0,0,0.06234567901234567,48.50493827160493,0)" xlink:href="#bB"/><use transform="matrix(0.06234567901234567,0,0,0.06234567901234567,62.158641975308626,0)" xlink:href="#aR"/></g><path fill="#333" d="M206 0h-36l-40-164L89 0H53L-1-190h32L70-26l43-164h34l41 164 42-164h31" id="bC"/><g id="B"><use transform="matrix(0.05,0,0,0.05,0,0)" xlink:href="#bz"/><use transform="matrix(0.05,0,0,0.05,5,0)" xlink:href="#bf"/><use transform="matrix(0.05,0,0,0.05,15,0)" xlink:href="#bg"/><use transform="matrix(0.05,0,0,0.05,18.95,0)" xlink:href="#bg"/><use transform="matrix(0.05,0,0,0.05,22.9,0)" xlink:href="#bf"/><use transform="matrix(0.05,0,0,0.05,32.9,0)" xlink:href="#bC"/><use transform="matrix(0.05,0,0,0.05,45.85,0)" xlink:href="#aU"/><use transform="matrix(0.05,0,0,0.05,49.800000000000004,0)" xlink:href="#aW"/><use transform="matrix(0.05,0,0,0.05,59.800000000000004,0)" xlink:href="#bu"/><use transform="matrix(0.05,0,0,0.05,69.80000000000001,0)" xlink:href="#bh"/><use transform="matrix(0.05,0,0,0.05,79.80000000000001,0)" xlink:href="#bi"/><use transform="matrix(0.05,0,0,0.05,89.80000000000001,0)" xlink:href="#ba"/><use transform="matrix(0.05,0,0,0.05,98.80000000000001,0)" xlink:href="#aZ"/><use transform="matrix(0.05,0,0,0.05,108.80000000000001,0)" xlink:href="#bc"/><use transform="matrix(0.05,0,0,0.05,114.75,0)" xlink:href="#bh"/><use transform="matrix(0.05,0,0,0.05,124.75,0)" xlink:href="#aU"/><use transform="matrix(0.05,0,0,0.05,128.70000000000002,0)" xlink:href="#aV"/></g><g id="C"><use transform="matrix(0.05,0,0,0.05,0,0)" xlink:href="#bz"/><use transform="matrix(0.05,0,0,0.05,5,0)" xlink:href="#bf"/><use transform="matrix(0.05,0,0,0.05,15,0)" xlink:href="#bg"/><use transform="matrix(0.05,0,0,0.05,18.95,0)" xlink:href="#bg"/><use transform="matrix(0.05,0,0,0.05,22.9,0)" xlink:href="#bf"/><use transform="matrix(0.05,0,0,0.05,32.9,0)" xlink:href="#bC"/><use transform="matrix(0.05,0,0,0.05,45.85,0)" xlink:href="#aZ"/><use transform="matrix(0.05,0,0,0.05,55.85,0)" xlink:href="#aV"/><use transform="matrix(0.05,0,0,0.05,65.85,0)" xlink:href="#bh"/><use transform="matrix(0.05,0,0,0.05,75.85,0)" xlink:href="#bi"/><use transform="matrix(0.05,0,0,0.05,85.85,0)" xlink:href="#ba"/><use transform="matrix(0.05,0,0,0.05,94.85,0)" xlink:href="#aZ"/><use transform="matrix(0.05,0,0,0.05,104.84999999999998,0)" xlink:href="#bc"/><use transform="matrix(0.05,0,0,0.05,110.80000000000001,0)" xlink:href="#bh"/><use transform="matrix(0.05,0,0,0.05,120.80000000000001,0)" xlink:href="#aU"/><use transform="matrix(0.05,0,0,0.05,124.75,0)" xlink:href="#aV"/></g><path fill="#333" d="M195-6C206 82 75 100 31 46c-4-6-6-13-8-21l49-6c3 16 16 24 34 25 40 0 42-37 40-79-11 22-30 35-61 35-53 0-70-43-70-97 0-56 18-96 73-97 30 0 46 14 59 34l2-30h47zm-90-29c32 0 41-27 41-63 0-35-9-62-40-62-32 0-39 29-40 63 0 36 9 62 39 62" id="bD"/><g id="D"><use transform="matrix(0.06234567901234567,0,0,0.06234567901234567,0,0)" xlink:href="#bD"/><use transform="matrix(0.06234567901234567,0,0,0.06234567901234567,13.653703703703702,0)" xlink:href="#bs"/><use transform="matrix(0.06234567901234567,0,0,0.06234567901234567,26.122839506172834,0)" xlink:href="#bA"/><use transform="matrix(0.06234567901234567,0,0,0.06234567901234567,39.776543209876536,0)" xlink:href="#bt"/><use transform="matrix(0.06234567901234567,0,0,0.06234567901234567,48.50493827160493,0)" xlink:href="#bs"/></g><g id="E"><use transform="matrix(0.05,0,0,0.05,0,0)" xlink:href="#bu"/><use transform="matrix(0.05,0,0,0.05,10,0)" xlink:href="#aZ"/><use transform="matrix(0.05,0,0,0.05,20,0)" xlink:href="#aW"/><use transform="matrix(0.05,0,0,0.05,30,0)" xlink:href="#bc"/><use transform="matrix(0.05,0,0,0.05,35.95,0)" xlink:href="#aZ"/><use transform="matrix(0.05,0,0,0.05,45.95,0)" xlink:href="#bh"/><use transform="matrix(0.05,0,0,0.05,55.95,0)" xlink:href="#aU"/><use transform="matrix(0.05,0,0,0.05,59.900000000000006,0)" xlink:href="#aV"/></g><g id="F"><use transform="matrix(0.05,0,0,0.05,0,0)" xlink:href="#bu"/><use transform="matrix(0.05,0,0,0.05,10,0)" xlink:href="#aZ"/><use transform="matrix(0.05,0,0,0.05,20,0)" xlink:href="#aW"/><use transform="matrix(0.05,0,0,0.05,30,0)" xlink:href="#bc"/><use transform="matrix(0.05,0,0,0.05,35.95,0)" xlink:href="#aZ"/></g><path fill="#333" d="M-4 44V30h207v14H-4" id="bE"/><g id="G"><use transform="matrix(0.06234567901234567,0,0,0.06234567901234567,0,0)" xlink:href="#aN"/><use transform="matrix(0.06234567901234567,0,0,0.06234567901234567,7.4191358024691345,0)" xlink:href="#aO"/><use transform="matrix(0.06234567901234567,0,0,0.06234567901234567,13.653703703703702,0)" xlink:href="#aP"/><use transform="matrix(0.06234567901234567,0,0,0.06234567901234567,19.888271604938268,0)" xlink:href="#aQ"/><use transform="matrix(0.06234567901234567,0,0,0.06234567901234567,39.83888888888888,0)" xlink:href="#bE"/><use transform="matrix(0.06234567901234567,0,0,0.06234567901234567,52.308024691358014,0)" xlink:href="#bD"/><use transform="matrix(0.06234567901234567,0,0,0.06234567901234567,65.96172839506171,0)" xlink:href="#bs"/><use transform="matrix(0.06234567901234567,0,0,0.06234567901234567,78.43086419753084,0)" xlink:href="#bA"/><use transform="matrix(0.06234567901234567,0,0,0.06234567901234567,92.08456790123454,0)" xlink:href="#bt"/><use transform="matrix(0.06234567901234567,0,0,0.06234567901234567,100.81296296296293,0)" xlink:href="#bs"/></g><path fill="#333" d="M133-34C117-15 103 5 69 4 32 3 11-16 11-54c-1-60 55-63 116-61 1-26-3-47-28-47-18 1-26 9-28 27l-52-2c7-38 36-58 82-57s74 22 75 68l1 82c-1 14 12 18 25 15v27c-30 8-71 5-69-32zm-48 3c29 0 43-24 42-57-32 0-66-3-65 30 0 17 8 27 23 27" id="bF"/><path fill="#333" d="M115-3C79 11 28 4 28-45v-112H4v-33h27l15-45h31v45h36v33H77v99c-1 23 16 31 38 25v30" id="bG"/><g id="H"><use transform="matrix(0.06234567901234567,0,0,0.06234567901234567,0,0)" xlink:href="#bt"/><use transform="matrix(0.06234567901234567,0,0,0.06234567901234567,8.728395061728394,0)" xlink:href="#bF"/><use transform="matrix(0.06234567901234567,0,0,0.06234567901234567,21.197530864197525,0)" xlink:href="#bG"/><use transform="matrix(0.06234567901234567,0,0,0.06234567901234567,28.61666666666666,0)" xlink:href="#aO"/><use transform="matrix(0.06234567901234567,0,0,0.06234567901234567,34.85123456790123,0)" xlink:href="#bA"/><use transform="matrix(0.06234567901234567,0,0,0.06234567901234567,48.50493827160493,0)" xlink:href="#bD"/></g><g id="I"><use transform="matrix(0.05,0,0,0.05,0,0)" xlink:href="#bc"/><use transform="matrix(0.05,0,0,0.05,5.95,0)" xlink:href="#aX"/><use transform="matrix(0.05,0,0,0.05,15.949999999999998,0)" xlink:href="#be"/><use transform="matrix(0.05,0,0,0.05,20.95,0)" xlink:href="#aU"/><use transform="matrix(0.05,0,0,0.05,24.9,0)" xlink:href="#aW"/><use transform="matrix(0.05,0,0,0.05,34.9,0)" xlink:href="#bu"/><use transform="matrix(0.05,0,0,0.05,44.9,0)" xlink:href="#bh"/><use transform="matrix(0.05,0,0,0.05,54.900000000000006,0)" xlink:href="#aU"/><use transform="matrix(0.05,0,0,0.05,58.85,0)" xlink:href="#aV"/></g><g id="J"><use transform="matrix(0.05,0,0,0.05,0,0)" xlink:href="#bc"/><use transform="matrix(0.05,0,0,0.05,5.95,0)" xlink:href="#aX"/><use transform="matrix(0.05,0,0,0.05,15.949999999999998,0)" xlink:href="#be"/><use transform="matrix(0.05,0,0,0.05,20.95,0)" xlink:href="#aU"/><use transform="matrix(0.05,0,0,0.05,24.9,0)" xlink:href="#aW"/><use transform="matrix(0.05,0,0,0.05,34.9,0)" xlink:href="#bu"/><use transform="matrix(0.05,0,0,0.05,44.9,0)" xlink:href="#bh"/><use transform="matrix(0.05,0,0,0.05,54.900000000000006,0)" xlink:href="#aW"/><use transform="matrix(0.05,0,0,0.05,64.9,0)" xlink:href="#aX"/><use transform="matrix(0.05,0,0,0.05,74.9,0)" xlink:href="#aY"/><use transform="matrix(0.05,0,0,0.05,89.85000000000001,0)" xlink:href="#aZ"/></g><path fill="#333" d="M128 0H69L1-190h53L99-40l48-150h52" id="bH"/><path fill="#333" d="M231 0h-52l-39-155L100 0H48L-1-190h46L77-45c9-52 24-97 36-145h53l37 145 32-145h46" id="bI"/><g id="K"><use transform="matrix(0.06234567901234567,0,0,0.06234567901234567,0,0)" xlink:href="#aN"/><use transform="matrix(0.06234567901234567,0,0,0.06234567901234567,7.4191358024691345,0)" xlink:href="#aO"/><use transform="matrix(0.06234567901234567,0,0,0.06234567901234567,13.653703703703702,0)" xlink:href="#aP"/><use transform="matrix(0.06234567901234567,0,0,0.06234567901234567,19.888271604938268,0)" xlink:href="#aQ"/><use transform="matrix(0.06234567901234567,0,0,0.06234567901234567,39.83888888888888,0)" xlink:href="#aR"/><use transform="matrix(0.06234567901234567,0,0,0.06234567901234567,52.308024691358014,0)" xlink:href="#bE"/><use transform="matrix(0.06234567901234567,0,0,0.06234567901234567,64.77716049382715,0)" xlink:href="#bt"/><use transform="matrix(0.06234567901234567,0,0,0.06234567901234567,73.50555555555555,0)" xlink:href="#bs"/><use transform="matrix(0.06234567901234567,0,0,0.06234567901234567,85.97469135802467,0)" xlink:href="#bH"/><use transform="matrix(0.06234567901234567,0,0,0.06234567901234567,98.44382716049381,0)" xlink:href="#aO"/><use transform="matrix(0.06234567901234567,0,0,0.06234567901234567,104.67839506172838,0)" xlink:href="#bs"/><use transform="matrix(0.06234567901234567,0,0,0.06234567901234567,117.1475308641975,0)" xlink:href="#bI"/><use transform="matrix(0.06234567901234567,0,0,0.06234567901234567,134.6043209876543,0)" xlink:href="#aR"/></g><path fill="#333" d="M108 0H70L1-190h34L89-25l56-165h34" id="bJ"/><g id="L"><use transform="matrix(0.05,0,0,0.05,0,0)" xlink:href="#bc"/><use transform="matrix(0.05,0,0,0.05,5.95,0)" xlink:href="#aZ"/><use transform="matrix(0.05,0,0,0.05,15.949999999999998,0)" xlink:href="#bJ"/><use transform="matrix(0.05,0,0,0.05,24.95,0)" xlink:href="#aU"/><use transform="matrix(0.05,0,0,0.05,28.899999999999995,0)" xlink:href="#aZ"/><use transform="matrix(0.05,0,0,0.05,38.9,0)" xlink:href="#bC"/><use transform="matrix(0.05,0,0,0.05,51.85,0)" xlink:href="#bh"/><use transform="matrix(0.05,0,0,0.05,61.85,0)" xlink:href="#aU"/><use transform="matrix(0.05,0,0,0.05,65.8,0)" xlink:href="#aV"/></g><path fill="#333" d="M190-63c-7 42-38 67-86 67-59 0-84-38-90-98-12-110 154-137 174-36l-49 2c-2-19-15-32-35-32-30 0-35 28-38 64-6 74 65 87 74 30" id="bK"/><path fill="#333" d="M110-194c64 0 96 36 96 99 0 64-35 99-97 99-61 0-95-36-95-99 0-62 34-99 96-99zm-1 164c35 0 45-28 45-65 0-40-10-65-43-65-34 0-45 26-45 65 0 36 10 65 43 65" id="bL"/><g id="M"><use transform="matrix(0.06234567901234567,0,0,0.06234567901234567,0,0)" xlink:href="#aN"/><use transform="matrix(0.06234567901234567,0,0,0.06234567901234567,7.4191358024691345,0)" xlink:href="#aO"/><use transform="matrix(0.06234567901234567,0,0,0.06234567901234567,13.653703703703702,0)" xlink:href="#aP"/><use transform="matrix(0.06234567901234567,0,0,0.06234567901234567,19.888271604938268,0)" xlink:href="#aQ"/><use transform="matrix(0.06234567901234567,0,0,0.06234567901234567,39.83888888888888,0)" xlink:href="#bE"/><use transform="matrix(0.06234567901234567,0,0,0.06234567901234567,52.308024691358014,0)" xlink:href="#bB"/><use transform="matrix(0.06234567901234567,0,0,0.06234567901234567,65.96172839506171,0)" xlink:href="#aO"/><use transform="matrix(0.06234567901234567,0,0,0.06234567901234567,72.19629629629628,0)" xlink:href="#bt"/><use transform="matrix(0.06234567901234567,0,0,0.06234567901234567,80.92469135802467,0)" xlink:href="#bs"/><use transform="matrix(0.06234567901234567,0,0,0.06234567901234567,93.3938271604938,0)" xlink:href="#bK"/><use transform="matrix(0.06234567901234567,0,0,0.06234567901234567,105.86296296296294,0)" xlink:href="#bG"/><use transform="matrix(0.06234567901234567,0,0,0.06234567901234567,113.28209876543207,0)" xlink:href="#bL"/><use transform="matrix(0.06234567901234567,0,0,0.06234567901234567,126.93580246913577,0)" xlink:href="#bt"/></g><g id="N"><use transform="matrix(0.05,0,0,0.05,0,0)" xlink:href="#aV"/><use transform="matrix(0.05,0,0,0.05,10,0)" xlink:href="#aU"/><use transform="matrix(0.05,0,0,0.05,13.949999999999998,0)" xlink:href="#bc"/><use transform="matrix(0.05,0,0,0.05,19.9,0)" xlink:href="#aZ"/><use transform="matrix(0.05,0,0,0.05,29.899999999999995,0)" xlink:href="#bb"/><use transform="matrix(0.05,0,0,0.05,38.9,0)" xlink:href="#be"/><use transform="matrix(0.05,0,0,0.05,43.9,0)" xlink:href="#bf"/><use transform="matrix(0.05,0,0,0.05,53.900000000000006,0)" xlink:href="#bc"/><use transform="matrix(0.05,0,0,0.05,59.85,0)" xlink:href="#bh"/><use transform="matrix(0.05,0,0,0.05,69.85,0)" xlink:href="#aU"/><use transform="matrix(0.05,0,0,0.05,73.8,0)" xlink:href="#aV"/></g><g id="O"><use transform="matrix(0.06234567901234567,0,0,0.06234567901234567,0,0)" xlink:href="#bB"/><use transform="matrix(0.06234567901234567,0,0,0.06234567901234567,13.653703703703702,0)" xlink:href="#aO"/><use transform="matrix(0.06234567901234567,0,0,0.06234567901234567,19.888271604938268,0)" xlink:href="#bt"/><use transform="matrix(0.06234567901234567,0,0,0.06234567901234567,28.61666666666666,0)" xlink:href="#bs"/><use transform="matrix(0.06234567901234567,0,0,0.06234567901234567,41.08580246913579,0)" xlink:href="#bK"/><use transform="matrix(0.06234567901234567,0,0,0.06234567901234567,53.554938271604925,0)" xlink:href="#bG"/><use transform="matrix(0.06234567901234567,0,0,0.06234567901234567,60.97407407407406,0)" xlink:href="#bL"/><use transform="matrix(0.06234567901234567,0,0,0.06234567901234567,74.62777777777777,0)" xlink:href="#bt"/><use transform="matrix(0.06234567901234567,0,0,0.06234567901234567,83.35617283950616,0)" xlink:href="#aR"/></g><g id="P"><use transform="matrix(0.05,0,0,0.05,0,0)" xlink:href="#aV"/><use transform="matrix(0.05,0,0,0.05,10,0)" xlink:href="#aU"/><use transform="matrix(0.05,0,0,0.05,13.949999999999998,0)" xlink:href="#bc"/><use transform="matrix(0.05,0,0,0.05,19.9,0)" xlink:href="#aZ"/><use transform="matrix(0.05,0,0,0.05,29.899999999999995,0)" xlink:href="#bb"/><use transform="matrix(0.05,0,0,0.05,38.9,0)" xlink:href="#be"/><use transform="matrix(0.05,0,0,0.05,43.9,0)" xlink:href="#bf"/><use transform="matrix(0.05,0,0,0.05,53.900000000000006,0)" xlink:href="#bc"/></g><g id="Q"><use transform="matrix(0.06234567901234567,0,0,0.06234567901234567,0,0)" xlink:href="#aN"/><use transform="matrix(0.06234567901234567,0,0,0.06234567901234567,7.4191358024691345,0)" xlink:href="#bs"/><use transform="matrix(0.06234567901234567,0,0,0.06234567901234567,19.888271604938268,0)" xlink:href="#bs"/><use transform="matrix(0.06234567901234567,0,0,0.06234567901234567,32.3574074074074,0)" xlink:href="#bB"/><use transform="matrix(0.06234567901234567,0,0,0.06234567901234567,46.011111111111106,0)" xlink:href="#aR"/></g><path fill="#333" d="M33 0v-248h34V0H33" id="bM"/><g id="R"><use transform="matrix(0.05,0,0,0.05,0,0)" xlink:href="#aZ"/><use transform="matrix(0.05,0,0,0.05,10,0)" xlink:href="#bJ"/><use transform="matrix(0.05,0,0,0.05,19,0)" xlink:href="#aZ"/><use transform="matrix(0.05,0,0,0.05,29,0)" xlink:href="#aW"/><use transform="matrix(0.05,0,0,0.05,39,0)" xlink:href="#be"/><use transform="matrix(0.05,0,0,0.05,44,0)" xlink:href="#bM"/><use transform="matrix(0.05,0,0,0.05,49,0)" xlink:href="#aV"/></g><path d="M100-194c63 0 86 42 84 106H49c0 40 14 67 53 68 26 1 43-12 49-29l28 8c-11 28-37 45-77 45C44 4 14-33 15-96c1-61 26-98 85-98zm52 81c6-60-76-77-97-28-3 7-6 17-6 28h103" id="bN"/><path d="M179-190L93 31C79 59 56 82 12 73V49c39 6 53-20 64-50L1-190h34L92-34l54-156h33" id="bO"/><path d="M33 0v-248h34V0H33" id="bP"/><g id="S"><use transform="matrix(0.05,0,0,0.05,0,0)" xlink:href="#bN"/><use transform="matrix(0.05,0,0,0.05,10,0)" xlink:href="#bn"/><use transform="matrix(0.05,0,0,0.05,20,0)" xlink:href="#bl"/><use transform="matrix(0.05,0,0,0.05,25,0)" xlink:href="#bm"/><use transform="matrix(0.05,0,0,0.05,28.950000000000003,0)" xlink:href="#bl"/><use transform="matrix(0.05,0,0,0.05,33.95,0)" xlink:href="#bO"/><use transform="matrix(0.05,0,0,0.05,42.95,0)" xlink:href="#bP"/><use transform="matrix(0.05,0,0,0.05,47.95,0)" xlink:href="#bq"/></g><path d="M108 0H70L1-190h34L89-25l56-165h34" id="bQ"/><path d="M127-220V0H93v-220H8v-28h204v28h-85" id="bR"/><path d="M115-194c55 1 70 41 70 98S169 2 115 4C84 4 66-9 55-30l1 105H24l-1-265h31l2 30c10-21 28-34 59-34zm-8 174c40 0 45-34 45-75s-6-73-45-74c-42 0-51 32-51 76 0 43 10 73 51 73" id="bS"/><g id="T"><use transform="matrix(0.05,0,0,0.05,0,0)" xlink:href="#bN"/><use transform="matrix(0.05,0,0,0.05,10,0)" xlink:href="#bQ"/><use transform="matrix(0.05,0,0,0.05,19,0)" xlink:href="#bN"/><use transform="matrix(0.05,0,0,0.05,29,0)" xlink:href="#bn"/><use transform="matrix(0.05,0,0,0.05,39,0)" xlink:href="#bl"/><use transform="matrix(0.05,0,0,0.05,44,0)" xlink:href="#bR"/><use transform="matrix(0.05,0,0,0.05,53.95,0)" xlink:href="#bO"/><use transform="matrix(0.05,0,0,0.05,62.95,0)" xlink:href="#bS"/><use transform="matrix(0.05,0,0,0.05,72.95,0)" xlink:href="#bN"/></g><path d="M100-194c62-1 85 37 85 99 1 63-27 99-86 99S16-35 15-95c0-66 28-99 85-99zM99-20c44 1 53-31 53-75 0-43-8-75-51-75s-53 32-53 75 10 74 51 75" id="bT"/><g id="U"><use transform="matrix(0.05,0,0,0.05,0,0)" xlink:href="#bT"/><use transform="matrix(0.05,0,0,0.05,10,0)" xlink:href="#bS"/><use transform="matrix(0.05,0,0,0.05,20,0)" xlink:href="#bN"/><use transform="matrix(0.05,0,0,0.05,30,0)" xlink:href="#bj"/><use transform="matrix(0.05,0,0,0.05,35.95,0)" xlink:href="#bk"/><use transform="matrix(0.05,0,0,0.05,45.95,0)" xlink:href="#bl"/><use transform="matrix(0.05,0,0,0.05,50.95,0)" xlink:href="#bm"/><use transform="matrix(0.05,0,0,0.05,54.900000000000006,0)" xlink:href="#bT"/><use transform="matrix(0.05,0,0,0.05,64.9,0)" xlink:href="#bn"/></g><path d="M210-169c-67 3-38 105-44 169h-31v-121c0-29-5-50-35-48C34-165 62-65 56 0H25l-1-190h30c1 10-1 24 2 32 10-44 99-50 107 0 11-21 27-35 58-36 85-2 47 119 55 194h-31v-121c0-29-5-49-35-48" id="bU"/><path d="M135-143c-3-34-86-38-87 0 15 53 115 12 119 90S17 21 10-45l28-5c4 36 97 45 98 0-10-56-113-15-118-90-4-57 82-63 122-42 12 7 21 19 24 35" id="bV"/><g id="V"><use transform="matrix(0.05,0,0,0.05,0,0)" xlink:href="#bl"/><use transform="matrix(0.05,0,0,0.05,5,0)" xlink:href="#bm"/><use transform="matrix(0.05,0,0,0.05,8.95,0)" xlink:href="#bU"/><use transform="matrix(0.05,0,0,0.05,23.9,0)" xlink:href="#bN"/><use transform="matrix(0.05,0,0,0.05,33.9,0)" xlink:href="#bV"/><use transform="matrix(0.05,0,0,0.05,42.9,0)" xlink:href="#bl"/><use transform="matrix(0.05,0,0,0.05,47.9,0)" xlink:href="#bk"/><use transform="matrix(0.05,0,0,0.05,57.900000000000006,0)" xlink:href="#bU"/><use transform="matrix(0.05,0,0,0.05,72.85,0)" xlink:href="#bS"/></g><g id="W"><use transform="matrix(0.06234567901234567,0,0,0.06234567901234567,0,0)" xlink:href="#br"/><use transform="matrix(0.06234567901234567,0,0,0.06234567901234567,13.653703703703702,0)" xlink:href="#aR"/><use transform="matrix(0.06234567901234567,0,0,0.06234567901234567,26.122839506172834,0)" xlink:href="#bs"/><use transform="matrix(0.06234567901234567,0,0,0.06234567901234567,38.59197530864196,0)" xlink:href="#bt"/><use transform="matrix(0.06234567901234567,0,0,0.06234567901234567,47.320370370370355,0)" xlink:href="#aR"/><use transform="matrix(0.06234567901234567,0,0,0.06234567901234567,59.78950617283949,0)" xlink:href="#bE"/><use transform="matrix(0.06234567901234567,0,0,0.06234567901234567,72.25864197530862,0)" xlink:href="#bt"/><use transform="matrix(0.06234567901234567,0,0,0.06234567901234567,80.98703703703701,0)" xlink:href="#bs"/><use transform="matrix(0.06234567901234567,0,0,0.06234567901234567,93.45617283950614,0)" xlink:href="#bH"/><use transform="matrix(0.06234567901234567,0,0,0.06234567901234567,105.92530864197528,0)" xlink:href="#aO"/><use transform="matrix(0.06234567901234567,0,0,0.06234567901234567,112.15987654320985,0)" xlink:href="#bs"/><use transform="matrix(0.06234567901234567,0,0,0.06234567901234567,124.62901234567897,0)" xlink:href="#bI"/><use transform="matrix(0.06234567901234567,0,0,0.06234567901234567,142.08580246913576,0)" xlink:href="#aR"/></g><g id="X"><use transform="matrix(0.06234567901234567,0,0,0.06234567901234567,0,0)" xlink:href="#bt"/><use transform="matrix(0.06234567901234567,0,0,0.06234567901234567,8.728395061728394,0)" xlink:href="#bs"/><use transform="matrix(0.06234567901234567,0,0,0.06234567901234567,21.197530864197525,0)" xlink:href="#bH"/><use transform="matrix(0.06234567901234567,0,0,0.06234567901234567,33.66666666666666,0)" xlink:href="#aO"/><use transform="matrix(0.06234567901234567,0,0,0.06234567901234567,39.90123456790123,0)" xlink:href="#bs"/><use transform="matrix(0.06234567901234567,0,0,0.06234567901234567,52.37037037037036,0)" xlink:href="#bI"/><use transform="matrix(0.06234567901234567,0,0,0.06234567901234567,69.82716049382715,0)" xlink:href="#aR"/></g><g id="Y"><use transform="matrix(0.05,0,0,0.05,0,0)" xlink:href="#bb"/><use transform="matrix(0.05,0,0,0.05,9,0)" xlink:href="#bf"/><use transform="matrix(0.05,0,0,0.05,19,0)" xlink:href="#aW"/><use transform="matrix(0.05,0,0,0.05,29,0)" xlink:href="#be"/><use transform="matrix(0.05,0,0,0.05,34,0)" xlink:href="#aZ"/><use transform="matrix(0.05,0,0,0.05,44,0)" xlink:href="#aW"/><use transform="matrix(0.05,0,0,0.05,54,0)" xlink:href="#be"/></g><g id="Z"><use transform="matrix(0.05,0,0,0.05,0,0)" xlink:href="#bm"/><use transform="matrix(0.05,0,0,0.05,3.95,0)" xlink:href="#bV"/><use transform="matrix(0.05,0,0,0.05,12.949999999999998,0)" xlink:href="#bp"/><use transform="matrix(0.05,0,0,0.05,22.95,0)" xlink:href="#bS"/><use transform="matrix(0.05,0,0,0.05,32.95,0)" xlink:href="#bT"/><use transform="matrix(0.05,0,0,0.05,42.95,0)" xlink:href="#bV"/><use transform="matrix(0.05,0,0,0.05,51.95,0)" xlink:href="#bm"/><use transform="matrix(0.05,0,0,0.05,55.900000000000006,0)" xlink:href="#bl"/><use transform="matrix(0.05,0,0,0.05,60.900000000000006,0)" xlink:href="#bm"/><use transform="matrix(0.05,0,0,0.05,64.85000000000001,0)" xlink:href="#bQ"/><use transform="matrix(0.05,0,0,0.05,73.85000000000001,0)" xlink:href="#bN"/></g><path d="M84 4C-5 8 30-112 23-190h32v120c0 31 7 50 39 49 72-2 45-101 50-169h31l1 190h-30c-1-10 1-25-2-33-11 22-28 36-60 37" id="bW"/><path d="M101-234c-31-9-42 10-38 44h38v23H63V0H32v-167H5v-23h27c-7-52 17-82 69-68v24" id="bX"/><path d="M24 0v-261h32V0H24" id="bY"/><g id="aa"><use transform="matrix(0.05,0,0,0.05,0,0)" xlink:href="#bW"/><use transform="matrix(0.05,0,0,0.05,10,0)" xlink:href="#bV"/><use transform="matrix(0.05,0,0,0.05,19,0)" xlink:href="#bN"/><use transform="matrix(0.05,0,0,0.05,29,0)" xlink:href="#bX"/><use transform="matrix(0.05,0,0,0.05,34,0)" xlink:href="#bW"/><use transform="matrix(0.05,0,0,0.05,44,0)" xlink:href="#bY"/></g><g id="ab"><use transform="matrix(0.06234567901234567,0,0,0.06234567901234567,0,0)" xlink:href="#aP"/><use transform="matrix(0.06234567901234567,0,0,0.06234567901234567,6.234567901234566,0)" xlink:href="#aO"/><use transform="matrix(0.06234567901234567,0,0,0.06234567901234567,12.469135802469133,0)" xlink:href="#by"/><use transform="matrix(0.06234567901234567,0,0,0.06234567901234567,24.938271604938265,0)" xlink:href="#bs"/><use transform="matrix(0.06234567901234567,0,0,0.06234567901234567,37.4074074074074,0)" xlink:href="#aR"/><use transform="matrix(0.06234567901234567,0,0,0.06234567901234567,49.87654320987653,0)" xlink:href="#bE"/><use transform="matrix(0.06234567901234567,0,0,0.06234567901234567,62.34567901234566,0)" xlink:href="#bt"/><use transform="matrix(0.06234567901234567,0,0,0.06234567901234567,71.07407407407406,0)" xlink:href="#bs"/><use transform="matrix(0.06234567901234567,0,0,0.06234567901234567,83.54320987654319,0)" xlink:href="#bH"/><use transform="matrix(0.06234567901234567,0,0,0.06234567901234567,96.01234567901233,0)" xlink:href="#aO"/><use transform="matrix(0.06234567901234567,0,0,0.06234567901234567,102.2469135802469,0)" xlink:href="#bs"/><use transform="matrix(0.06234567901234567,0,0,0.06234567901234567,114.71604938271602,0)" xlink:href="#bI"/><use transform="matrix(0.06234567901234567,0,0,0.06234567901234567,132.1728395061728,0)" xlink:href="#aR"/></g><path d="M143 0L79-87 56-68V0H24v-261h32v163l83-92h37l-77 82L181 0h-38" id="bZ"/><g id="ac"><use transform="matrix(0.05,0,0,0.05,0,0)" xlink:href="#bm"/><use transform="matrix(0.05,0,0,0.05,3.95,0)" xlink:href="#bV"/><use transform="matrix(0.05,0,0,0.05,12.949999999999998,0)" xlink:href="#bp"/><use transform="matrix(0.05,0,0,0.05,22.95,0)" xlink:href="#bY"/><use transform="matrix(0.05,0,0,0.05,26.899999999999995,0)" xlink:href="#bm"/><use transform="matrix(0.05,0,0,0.05,30.849999999999994,0)" xlink:href="#bZ"/><use transform="matrix(0.05,0,0,0.05,39.849999999999994,0)" xlink:href="#bN"/></g></defs></g></svg>